<svg width="12" height="12" viewBox="0 0 12 12" fill="none" xmlns="http://www.w3.org/2000/svg">
<path d="M9.5 2.5C9.5 1.95 9.05 1.5 8.5 1.5H7V2.5H8.5V3.825L6.75 6H5V3.5H3C1.895 3.5 1 4.395 1 5.5V7H2C2 7.83 2.67 8.5 3.5 8.5C4.33 8.5 5 7.83 5 7H7.25L9.5 4.175V2.5ZM3.5 7.5C3.225 7.5 3 7.275 3 7H4C4 7.275 3.775 7.5 3.5 7.5ZM2.5 2H5V3H2.5V2ZM9.5 5.5C8.67 5.5 8 6.17 8 7C8 7.83 8.67 8.5 9.5 8.5C10.33 8.5 11 7.83 11 7C11 6.17 10.33 5.5 9.5 5.5ZM9.5 7.5C9.225 7.5 9 7.275 9 7C9 6.725 9.225 6.5 9.5 6.5C9.775 6.5 10 6.725 10 7C10 7.275 9.775 7.5 9.5 7.5ZM3.5 10H5.5V9L8.5 10.5H6.5V11.5L3.5 10Z" fill="white"/>
</svg>
