<svg width="16" height="16" viewBox="0 0 16 16" fill="none" xmlns="http://www.w3.org/2000/svg">
<path fill-rule="evenodd" clip-rule="evenodd" d="M4.04 3.24C5.09026 2.18974 6.51471 1.59972 8 1.59972C9.48529 1.59972 10.9097 2.18974 11.96 3.24C13.0103 4.29026 13.6003 5.71471 13.6003 7.2C13.6003 8.68529 13.0103 10.1097 11.96 11.16L8 15.12L4.04 11.16C3.51993 10.64 3.10739 10.0226 2.82593 9.34316C2.54446 8.6637 2.3996 7.93545 2.3996 7.2C2.3996 6.46455 2.54446 5.7363 2.82593 5.05684C3.10739 4.37738 3.51993 3.76002 4.04 3.24V3.24ZM8 8.8C8.42435 8.8 8.83131 8.63143 9.13137 8.33137C9.43143 8.03131 9.6 7.62435 9.6 7.2C9.6 6.77566 9.43143 6.36869 9.13137 6.06863C8.83131 5.76857 8.42435 5.6 8 5.6C7.57565 5.6 7.16869 5.76857 6.86863 6.06863C6.56857 6.36869 6.4 6.77566 6.4 7.2C6.4 7.62435 6.56857 8.03131 6.86863 8.33137C7.16869 8.63143 7.57565 8.8 8 8.8Z" fill="#FE450F"/>
</svg>
