<svg width="12" height="12" viewBox="0 0 12 12" fill="none" xmlns="http://www.w3.org/2000/svg">
<path fill-rule="evenodd" clip-rule="evenodd" d="M5.592 1.0615C5.0905 1.205 4.7045 1.5915 3.932 2.364L3.017 3.279C1.6715 4.624 0.999998 5.296 0.999998 6.131C0.999998 6.9665 1.672 7.6385 3.0165 8.983C4.3615 10.328 5.0335 11 5.869 11C6.704 11 7.3765 10.328 8.721 8.9835L9.636 8.0685C10.4085 7.2955 10.795 6.9095 10.9385 6.408C11.0825 5.9065 10.9595 5.374 10.7135 4.3095L10.572 3.6955C10.3655 2.7995 10.262 2.3515 9.9555 2.0445C9.649 1.7375 9.2 1.635 8.3045 1.428L7.6905 1.286C6.6255 1.0405 6.0935 0.918001 5.592 1.0615ZM8.3645 5.061C8.2715 5.15744 8.16021 5.23438 8.03714 5.28733C7.91407 5.34028 7.78168 5.36817 7.64771 5.36939C7.51374 5.3706 7.38087 5.34511 7.25686 5.2944C7.13285 5.24369 7.02019 5.16878 6.92545 5.07405C6.83072 4.97931 6.75581 4.86665 6.7051 4.74264C6.65439 4.61863 6.6289 4.48576 6.63011 4.35179C6.63133 4.21782 6.65922 4.08543 6.71217 3.96236C6.76512 3.83929 6.84206 3.728 6.9385 3.635C7.12875 3.45153 7.38342 3.35007 7.64771 3.35247C7.91201 3.35487 8.1648 3.46092 8.35169 3.64781C8.53858 3.8347 8.64463 4.08749 8.64703 4.35179C8.64942 4.61608 8.54797 4.87075 8.3645 5.061ZM5.9745 9.525L2.4845 6.0355C2.41622 5.96474 2.37847 5.87 2.37937 5.77168C2.38027 5.67335 2.41975 5.57931 2.48931 5.50982C2.55887 5.44032 2.65295 5.40093 2.75127 5.40012C2.8496 5.39931 2.94431 5.43716 3.015 5.5055L6.505 8.9945C6.57535 9.06485 6.61487 9.16026 6.61487 9.25975C6.61487 9.35924 6.57535 9.45465 6.505 9.525C6.43465 9.59535 6.33924 9.63487 6.23975 9.63487C6.14026 9.63487 6.04485 9.59535 5.9745 9.525Z" fill="#FE450F"/>
</svg>
