<svg width="12" height="12" viewBox="0 0 12 12" fill="none" xmlns="http://www.w3.org/2000/svg">
<path fill-rule="evenodd" clip-rule="evenodd" d="M5.59201 1.06138C5.09051 1.20488 4.70451 1.59138 3.93201 2.36388L3.01701 3.27888C1.67151 4.62388 1.00001 5.29588 1.00001 6.13088C1.00001 6.96638 1.67201 7.63838 3.01651 8.98288C4.36151 10.3279 5.03351 10.9999 5.86901 10.9999C6.70401 10.9999 7.37651 10.3279 8.72101 8.98338L9.63601 8.06838C10.4085 7.29538 10.795 6.90938 10.9385 6.40788C11.0825 5.90638 10.9595 5.37388 10.7135 4.30938L10.572 3.69538C10.3655 2.79938 10.262 2.35138 9.95551 2.04438C9.64901 1.73738 9.20001 1.63488 8.30451 1.42788L7.69051 1.28588C6.62551 1.04038 6.09351 0.917878 5.59201 1.06138ZM8.36451 5.06088C8.2715 5.15732 8.16022 5.23426 8.03715 5.28721C7.91408 5.34015 7.78169 5.36805 7.64772 5.36926C7.51375 5.37048 7.38088 5.34499 7.25687 5.29428C7.13286 5.24357 7.0202 5.16866 6.92546 5.07392C6.83073 4.97919 6.75582 4.86653 6.70511 4.74252C6.6544 4.61851 6.6289 4.48564 6.63012 4.35166C6.63133 4.21769 6.65923 4.08531 6.71218 3.96224C6.76513 3.83917 6.84207 3.72788 6.93851 3.63488C7.12875 3.45141 7.38343 3.34995 7.64772 3.35235C7.91201 3.35474 8.1648 3.4608 8.3517 3.64769C8.53859 3.83458 8.64464 4.08737 8.64704 4.35166C8.64943 4.61596 8.54798 4.87063 8.36451 5.06088ZM5.97451 9.52488L2.48451 6.03538C2.41623 5.96462 2.37848 5.86988 2.37938 5.77155C2.38028 5.67323 2.41976 5.57919 2.48932 5.5097C2.55888 5.4402 2.65296 5.40081 2.75128 5.4C2.8496 5.39919 2.94431 5.43704 3.01501 5.50538L6.50501 8.99438C6.57535 9.06473 6.61488 9.16014 6.61488 9.25963C6.61488 9.35912 6.57535 9.45453 6.50501 9.52488C6.43466 9.59523 6.33924 9.63475 6.23976 9.63475C6.14027 9.63475 6.04485 9.59523 5.97451 9.52488Z" fill="#FE450F"/>
</svg>
