<svg width="13" height="12" viewBox="0 0 13 12" fill="none" xmlns="http://www.w3.org/2000/svg">
<path d="M5.56865 0.290606C5.74735 -0.0968298 6.298 -0.096829 6.4767 0.290607L7.88041 3.33383C7.95324 3.49173 8.10288 3.60046 8.27557 3.62093L11.6036 4.01552C12.0273 4.06576 12.1975 4.58945 11.8842 4.87914L9.42371 7.15455C9.29604 7.27261 9.23888 7.44853 9.27277 7.61908L9.92591 10.9062C10.0091 11.3247 9.56358 11.6483 9.19128 11.4399L6.2669 9.80298C6.11516 9.71804 5.93019 9.71804 5.77845 9.80298L2.85407 11.4399C2.48176 11.6483 2.03628 11.3247 2.11944 10.9062L2.77258 7.61908C2.80647 7.44853 2.74931 7.27261 2.62164 7.15455L0.161132 4.87914C-0.152118 4.58945 0.0180403 4.06576 0.441737 4.01552L3.76978 3.62093C3.94247 3.60046 4.09211 3.49173 4.16494 3.33383L5.56865 0.290606Z" fill="#FFCC00"/>
</svg>
